<?xml version="1.0" standalone="no"?>
<!DOCTYPE svg PUBLIC "-//W3C//DTD SVG 20010904//EN"
 "http://www.w3.org/TR/2001/REC-SVG-20010904/DTD/svg10.dtd">
<svg version="1.0" xmlns="http://www.w3.org/2000/svg"
 width="2000.000000pt" height="2000.000000pt" viewBox="0 0 2000.000000 2000.000000"
 preserveAspectRatio="xMidYMid meet">
<metadata>
Created by potrace 1.14, written by Peter Selinger 2001-2017
</metadata>
<g transform="translate(0.000000,2000.000000) scale(0.100000,-0.100000)"
fill="#000000" stroke="none">
<path d="M12025 15434 c-351 -12 -706 -54 -1015 -120 -162 -34 -327 -77 -392
-100 -24 -9 -53 -18 -65 -20 -36 -7 -315 -101 -398 -134 -292 -116 -530 -231
-818 -394 -209 -119 -560 -363 -732 -511 -38 -33 -83 -71 -99 -85 -201 -171
-390 -354 -566 -549 -47 -52 -90 -99 -95 -105 -160 -174 -325 -393 -557 -736
-139 -206 -475 -690 -589 -850 -18 -25 -46 -63 -61 -85 -36 -50 -261 -371
-342 -487 -34 -48 -230 -327 -436 -620 -396 -564 -629 -896 -750 -1068 -106
-151 -206 -293 -270 -385 -144 -204 -264 -375 -485 -690 -131 -187 -291 -414
-355 -505 -499 -710 -550 -783 -544 -792 3 -5 1 -7 -4 -6 -6 2 -43 -44 -84
-102 -41 -58 -197 -280 -348 -495 -150 -214 -301 -428 -334 -475 -138 -195
-185 -268 -178 -275 4 -5 2 -6 -3 -2 -6 3 -62 -69 -125 -159 -63 -91 -146
-208 -184 -262 -38 -53 -78 -111 -90 -129 -11 -17 -51 -73 -87 -125 -165 -234
-437 -620 -488 -693 -30 -44 -90 -129 -133 -188 -43 -60 -75 -114 -71 -120 3
-7 3 -9 -2 -5 -5 5 -19 -8 -32 -27 -21 -31 -23 -44 -23 -167 l0 -134 63 -62
c58 -57 67 -63 117 -69 70 -7 1032 -7 1085 1 64 9 153 107 352 391 97 138 202
286 233 330 31 44 106 150 166 235 61 85 154 218 207 295 133 191 239 341 467
665 106 151 213 304 238 340 40 56 178 254 422 600 182 259 551 784 674 960
37 52 108 154 159 225 51 72 134 191 186 265 95 136 197 281 374 531 53 75
128 183 167 240 39 57 88 127 108 155 20 28 62 86 92 129 l55 77 7 -38 c4 -22
12 -101 18 -177 12 -153 52 -448 74 -542 8 -33 22 -94 31 -135 9 -41 25 -111
37 -154 11 -44 22 -90 24 -102 9 -47 127 -414 170 -529 176 -462 410 -899 695
-1295 281 -391 535 -668 949 -1040 119 -107 323 -273 375 -306 17 -10 32 -21
35 -25 3 -3 66 -49 140 -100 445 -310 972 -567 1500 -732 146 -46 311 -92 375
-106 28 -6 91 -20 140 -31 99 -22 222 -44 360 -65 553 -82 1333 -82 1855 0 52
9 112 17 132 20 49 6 187 32 263 50 33 8 101 24 150 36 222 52 522 149 765
249 517 210 1013 503 1458 863 l83 67 470 -467 c800 -797 878 -870 924 -879
42 -8 1178 -9 1253 -1 38 4 53 13 108 68 l64 63 0 134 0 134 -477 480 c-1558
1567 -1423 1428 -1407 1453 8 12 11 25 7 30 -5 4 -3 5 3 2 20 -12 251 327 404
593 71 125 213 404 281 555 132 293 295 827 363 1187 48 255 94 632 84 697 -2
17 0 32 6 34 17 6 12 804 -8 1002 -30 309 -50 446 -106 730 -54 272 -186 689
-317 1005 -144 344 -300 631 -536 985 -461 691 -1165 1356 -1897 1792 -251
149 -755 393 -781 378 -5 -4 -9 -2 -9 3 0 24 -446 171 -732 241 -342 84 -557
121 -858 146 -173 14 -693 25 -885 19z m1822 -309 c0 -8 -4 -12 -9 -9 -5 3 -6
10 -3 15 9 13 12 11 12 -6z m-1162 -1040 c120 -13 388 -58 565 -94 86 -18 246
-62 372 -102 70 -22 133 -37 139 -33 7 4 9 3 6 -2 -3 -6 29 -23 71 -38 519
-190 1067 -515 1465 -869 42 -38 77 -67 77 -65 0 8 151 -144 226 -227 184
-205 341 -410 481 -630 445 -698 682 -1432 743 -2302 27 -372 -59 -973 -206
-1453 -97 -313 -253 -673 -406 -933 -16 -27 -25 -54 -22 -60 4 -7 3 -9 -1 -4
-11 9 -96 -133 -88 -146 3 -6 2 -7 -3 -4 -6 3 -31 -28 -57 -69 l-48 -75 -236
228 c-129 125 -239 227 -244 225 -5 -1 -8 1 -7 5 4 16 -622 634 -633 627 -7
-4 -9 -3 -6 3 4 6 -460 473 -1030 1039 -1169 1161 -1063 1057 -1063 1051 0 -2
-118 116 -261 262 -144 146 -294 297 -333 335 -68 67 -1997 1977 -2338 2317
-93 91 -168 170 -168 175 0 22 391 258 600 364 243 123 659 278 940 351 260
68 610 122 915 143 104 7 401 -4 550 -19z m3245 -1519 c0 -3 -4 -8 -10 -11 -5
-3 -10 -1 -10 4 0 6 5 11 10 11 6 0 10 -2 10 -4z m-6527 -893 c370 -367 812
-807 982 -978 702 -703 1095 -1086 1105 -1080 6 4 9 2 8 -3 -4 -13 501 -522
1661 -1672 580 -575 1252 -1241 1494 -1481 l439 -437 -50 -40 c-72 -56 -298
-208 -422 -282 -460 -275 -1005 -482 -1530 -580 -562 -105 -940 -110 -1476
-20 -477 80 -861 205 -1309 425 -413 203 -743 427 -1092 742 -349 314 -699
787 -943 1272 -247 494 -396 976 -469 1521 -60 446 -48 804 45 1290 51 267 56
287 123 505 155 503 374 947 680 1377 42 59 78 108 79 108 2 0 306 -300 675
-667z m-1158 247 c3 -5 1 -10 -4 -10 -6 0 -11 5 -11 10 0 6 2 10 4 10 3 0 8
-4 11 -10z m5605 -3040 c0 -5 -2 -10 -4 -10 -3 0 -8 5 -11 10 -3 6 -1 10 4 10
6 0 11 -4 11 -10z m-5 -3680 c3 -5 1 -10 -4 -10 -6 0 -11 5 -11 10 0 6 2 10 4
10 3 0 8 -4 11 -10z"/>
</g>
</svg>
